<svg xmlns="http://www.w3.org/2000/svg" version="1.1" xmlns:xlink="http://www.w3.org/1999/xlink" xmlns:svgjs="http://svgjs.com/svgjs" width="1440" height="560" preserveAspectRatio="none" viewBox="0 0 1440 560"><g mask="url(&quot;#SvgjsMask1000&quot;)" fill="none"><rect width="1440" height="560" x="0" y="0" fill="#0e2a47"></rect><path d="M 0,75 C 57.6,102.8 172.8,213.4 288,214 C 403.2,214.6 460.8,88.8 576,78 C 691.2,67.2 748.8,159.2 864,160 C 979.2,160.8 1036.8,61.4 1152,82 C 1267.2,102.6 1382.4,226.8 1440,263L1440 560L0 560z" fill="#184a7e"></path><path d="M 0,433 C 96,405.2 288,285.6 480,294 C 672,302.4 768,458 960,475 C 1152,492 1344,398.2 1440,379L1440 560L0 560z" fill="#2264ab"></path></g><defs><mask id="SvgjsMask1000"><rect width="1440" height="560" fill="#ffffff"></rect></mask></defs></svg>